<?xml version="1.0" encoding="UTF-8"?>
<svg width="167px" height="167px" viewBox="0 0 167 167" version="1.1" xmlns="http://www.w3.org/2000/svg" xmlns:xlink="http://www.w3.org/1999/xlink">
    <title>167x167 (iPad)@1x</title>
    <defs>
        <path d="M0,71.5 C0,110.98945 32.01055,143 71.5,143 L71.5,143 C110.98945,143 143,110.98945 143,71.5 L143,71.5 C143,32.01055 110.98945,0 71.5,0 L71.5,0 C32.01055,0 0,32.01055 0,71.5 L0,71.5 Z M92.95,17.875 C97.408025,19.437275 101.597925,21.589425 105.430325,24.249225 L105.430325,24.249225 C119.46935,34.008975 128.7,50.5362 128.7,69.27635 L128.7,69.27635 C128.7,79.2077 126.093825,88.513425 121.5643,96.525 L121.5643,96.525 L92.95,17.875 Z M17.875,70.64915 C17.875,46.189 32.82565,25.4111 53.625,17.875 L53.625,17.875 L25.857975,100.1 C20.802925,91.552175 17.875,81.463525 17.875,70.64915 L17.875,70.64915 Z M71.42135,28.6 L85.8,71.5 L57.2,71.5 L71.42135,28.6 Z M42.9,116.727325 L50.711375,92.95 L92.174225,92.95 L100.1,116.85245 C91.82745,122.089825 82.064125,125.125 71.59295,125.125 L71.59295,125.125 C61.0467,125.125 51.21545,122.039775 42.9,116.727325 L42.9,116.727325 Z" id="path-1"></path>
    </defs>
    <g id="167x167-(iPad)" stroke="none" stroke-width="1" fill="none" fill-rule="evenodd">
        <rect fill="#FFFFFF" x="0" y="0" width="167" height="167"></rect>
        <g id="Group" transform="translate(0, -3)">
            <rect id="Rectangle" stroke="#979797" fill="#FFB91D" x="0.5" y="3.5" width="166" height="166" rx="19"></rect>
            <g id="Group-38">
                <path d="M88.0018811,-6 C113.943056,-6 137.422353,4.28584722 154.420135,20.8980266 C171.468029,37.5591803 182,60.5799937 182,86.0018384 C182,111.422031 171.467859,134.442158 154.41963,151.102927 C137.421898,167.714346 113.942805,178 88.0018811,178 C62.0607845,178 38.580546,167.714187 21.5818326,151.102518 C4.53288483,134.441758 -6,111.421792 -6,86.0018384 C-6,60.5802329 4.53271504,37.5595794 21.5813269,20.898436 C38.5800916,4.28600685 62.0605332,-6 88.0018811,-6 Z" id="Path" stroke="#000000" stroke-width="12"></path>
                <g id="A" transform="translate(19, 15)">
                    <mask id="mask-2" fill="white">
                        <use xlink:href="#path-1"></use>
                    </mask>
                    <g id="Clip-4"></g>
                    <polygon id="Fill-3" fill="#000000" mask="url(#mask-2)" points="-3.575 146.575 146.575 146.575 146.575 -3.575 -3.575 -3.575"></polygon>
                </g>
            </g>
        </g>
    </g>
</svg>